<svg width="24" height="24" viewBox="0 0 24 24" fill="none" xmlns="http://www.w3.org/2000/svg">
<path d="M9.16797 5.125C6.94873 5.125 5.125 6.94629 5.125 9.16797V14.832C5.125 17.0513 6.94629 18.875 9.16797 18.875H14.832C17.0513 18.875 18.875 17.0537 18.875 14.832V9.16797C18.875 6.94873 17.0537 5.125 14.832 5.125H9.16797ZM9.16797 6.375H14.832C16.3774 6.375 17.625 7.62256 17.625 9.16797V14.832C17.625 16.3774 16.3774 17.625 14.832 17.625H9.16797C7.62256 17.625 6.375 16.3774 6.375 14.832V9.16797C6.375 7.62256 7.62256 6.375 9.16797 6.375ZM15.6914 7.74219C15.3765 7.74219 15.125 7.99365 15.125 8.30859C15.125 8.62353 15.3765 8.875 15.6914 8.875C16.0063 8.875 16.2578 8.62353 16.2578 8.30859C16.2578 7.99365 16.0063 7.74219 15.6914 7.74219ZM12 8.25C9.93701 8.25 8.25 9.93701 8.25 12C8.25 14.063 9.93701 15.75 12 15.75C14.063 15.75 15.75 14.063 15.75 12C15.75 9.93701 14.063 8.25 12 8.25ZM12 9.5C13.3892 9.5 14.5 10.6108 14.5 12C14.5 13.3892 13.3892 14.5 12 14.5C10.6108 14.5 9.5 13.3892 9.5 12C9.5 10.6108 10.6108 9.5 12 9.5Z" fill="black"/>
</svg>
