<svg width="24" height="24" viewBox="0 0 24 24" fill="none" xmlns="http://www.w3.org/2000/svg">
<path d="M18.36 6.50995C17.9792 6.12897 17.5271 5.82675 17.0295 5.62055C16.5319 5.41436 15.9986 5.30823 15.4599 5.30823C14.9213 5.30823 14.388 5.41436 13.8904 5.62055C13.3928 5.82675 12.9407 6.12897 12.5599 6.50995L11.9999 7.07995L11.4499 6.52995C10.6808 5.76082 9.63766 5.32873 8.54995 5.32873C7.46224 5.32873 6.41908 5.76082 5.64995 6.52995C4.88082 7.29908 4.44873 8.34224 4.44873 9.42995C4.44873 10.5177 4.88082 11.5608 5.64995 12.33L11.9999 18.69L17.7999 12.89L18.37 12.32C18.7518 11.9384 19.0545 11.4851 19.2607 10.9863C19.4669 10.4874 19.5726 9.95269 19.5717 9.41288C19.5708 8.87306 19.4632 8.33874 19.2553 7.84058C19.0474 7.34242 18.7431 6.89023 18.36 6.50995ZM17.36 11.33L16.79 11.9L11.9999 16.71L6.62995 11.34C6.12339 10.8334 5.8388 10.1463 5.8388 9.42995C5.8388 8.71356 6.12339 8.02652 6.62995 7.51995C7.13651 7.01339 7.82356 6.7288 8.53995 6.7288C9.25634 6.7288 9.94339 7.01339 10.4499 7.51995L10.9999 8.06995L11.9999 9.06995L13 8.06995L13.57 7.49995C14.0778 6.99339 14.7662 6.70933 15.4835 6.71027C16.2008 6.71121 16.8884 6.99706 17.395 7.50495C17.9015 8.01284 18.1856 8.70116 18.1846 9.41849C18.1837 10.1358 17.8978 10.8234 17.3899 11.33H17.36Z" fill="#0C0C0D"/>
</svg>
