<svg width="95" height="24" viewBox="0 0 95 24" fill="none" xmlns="http://www.w3.org/2000/svg">
<path d="M28.72 16.22L26.08 18.08C26.54 19.04 27.16 19.93 27.94 20.75C28.74 21.57 29.66 22.23 30.7 22.73C31.76 23.21 32.9 23.45 34.12 23.45C35.02 23.45 35.88 23.3 36.7 23C37.54 22.72 38.29 22.32 38.95 21.8C39.61 21.26 40.13 20.6 40.51 19.82C40.91 19.04 41.11 18.16 41.11 17.18C41.11 16.26 40.95 15.46 40.63 14.78C40.31 14.08 39.89 13.48 39.37 12.98C38.87 12.48 38.3 12.06 37.66 11.72C37.04 11.38 36.41 11.1 35.77 10.88C34.65 10.48 33.74 10.09 33.04 9.71C32.34 9.33 31.82 8.93 31.48 8.51C31.16 8.07 31 7.58 31 7.04C31 6.44 31.23 5.92 31.69 5.48C32.15 5.02 32.87 4.79 33.85 4.79C34.55 4.79 35.16 4.93 35.68 5.21C36.22 5.47 36.69 5.83 37.09 6.29C37.49 6.73 37.83 7.21 38.11 7.73L40.96 6.11C40.62 5.37 40.13 4.66 39.49 3.98C38.85 3.3 38.07 2.74 37.15 2.3C36.23 1.84 35.15 1.61 33.91 1.61C32.65 1.61 31.52 1.85 30.52 2.33C29.54 2.81 28.76 3.48 28.18 4.34C27.6 5.18 27.31 6.16 27.31 7.28C27.31 8.26 27.5 9.1 27.88 9.8C28.26 10.48 28.74 11.06 29.32 11.54C29.9 12 30.51 12.39 31.15 12.71C31.79 13.01 32.37 13.25 32.89 13.43C33.77 13.75 34.55 14.08 35.23 14.42C35.91 14.74 36.43 15.14 36.79 15.62C37.17 16.08 37.36 16.69 37.36 17.45C37.36 18.29 37.06 18.97 36.46 19.49C35.86 20.01 35.08 20.27 34.12 20.27C33.34 20.27 32.62 20.1 31.96 19.76C31.32 19.42 30.73 18.95 30.19 18.35C29.67 17.75 29.18 17.04 28.72 16.22ZM42.523 9.2V12.05H50.353V9.2H42.523ZM44.863 4.4V23H48.043V4.4H44.863ZM51.5376 16.1C51.5376 17.5 51.8576 18.75 52.4976 19.85C53.1576 20.93 54.0476 21.78 55.1676 22.4C56.3076 23 57.5776 23.3 58.9776 23.3C60.3976 23.3 61.6676 23 62.7876 22.4C63.9076 21.78 64.7876 20.93 65.4276 19.85C66.0876 18.75 66.4176 17.5 66.4176 16.1C66.4176 14.68 66.0876 13.43 65.4276 12.35C64.7876 11.27 63.9076 10.43 62.7876 9.83C61.6676 9.21 60.3976 8.9 58.9776 8.9C57.5776 8.9 56.3076 9.21 55.1676 9.83C54.0476 10.43 53.1576 11.27 52.4976 12.35C51.8576 13.43 51.5376 14.68 51.5376 16.1ZM54.8676 16.1C54.8676 15.24 55.0476 14.48 55.4076 13.82C55.7676 13.16 56.2576 12.65 56.8776 12.29C57.4976 11.93 58.1976 11.75 58.9776 11.75C59.7576 11.75 60.4576 11.93 61.0776 12.29C61.6976 12.65 62.1876 13.16 62.5476 13.82C62.9076 14.48 63.0876 15.24 63.0876 16.1C63.0876 16.96 62.9076 17.72 62.5476 18.38C62.1876 19.02 61.6976 19.53 61.0776 19.91C60.4576 20.27 59.7576 20.45 58.9776 20.45C58.1976 20.45 57.4976 20.27 56.8776 19.91C56.2576 19.53 55.7676 19.02 55.4076 18.38C55.0476 17.72 54.8676 16.96 54.8676 16.1ZM72.7312 9.2H69.5212V23H72.7312V9.2ZM76.8412 12.65L78.4312 9.92C78.1112 9.54 77.7312 9.27 77.2912 9.11C76.8512 8.95 76.3812 8.87 75.8812 8.87C75.1812 8.87 74.5012 9.13 73.8412 9.65C73.2012 10.15 72.6712 10.83 72.2512 11.69C71.8512 12.53 71.6512 13.5 71.6512 14.6L72.7312 15.23C72.7312 14.57 72.8012 14 72.9412 13.52C73.1012 13.02 73.3512 12.63 73.6912 12.35C74.0312 12.07 74.4712 11.93 75.0112 11.93C75.4112 11.93 75.7412 11.99 76.0012 12.11C76.2812 12.23 76.5612 12.41 76.8412 12.65ZM86.2145 23.3C87.8145 23.3 89.1845 22.99 90.3245 22.37C91.4645 21.73 92.4045 20.79 93.1445 19.55L90.3245 18.44C89.9045 19.18 89.3645 19.73 88.7045 20.09C88.0445 20.45 87.2645 20.63 86.3645 20.63C85.5245 20.63 84.8145 20.45 84.2345 20.09C83.6545 19.73 83.2045 19.2 82.8845 18.5C82.5845 17.8 82.4445 16.96 82.4645 15.98C82.4645 14.98 82.6145 14.14 82.9145 13.46C83.2345 12.78 83.6745 12.26 84.2345 11.9C84.8145 11.54 85.5145 11.36 86.3345 11.36C87.0145 11.36 87.6045 11.51 88.1045 11.81C88.6245 12.11 89.0245 12.53 89.3045 13.07C89.6045 13.61 89.7545 14.25 89.7545 14.99C89.7545 15.13 89.7145 15.3 89.6345 15.5C89.5745 15.7 89.5145 15.86 89.4545 15.98L90.4445 14.6H81.1145V16.85H93.2345C93.2345 16.77 93.2345 16.64 93.2345 16.46C93.2545 16.28 93.2645 16.11 93.2645 15.95C93.2645 14.47 92.9945 13.21 92.4545 12.17C91.9145 11.11 91.1245 10.3 90.0845 9.74C89.0645 9.18 87.8245 8.9 86.3645 8.9C84.9045 8.9 83.6345 9.2 82.5545 9.8C81.4745 10.38 80.6345 11.21 80.0345 12.29C79.4545 13.37 79.1645 14.64 79.1645 16.1C79.1645 17.54 79.4545 18.8 80.0345 19.88C80.6145 20.96 81.4345 21.8 82.4945 22.4C83.5745 23 84.8145 23.3 86.2145 23.3Z" fill="white"/>
<path d="M7.21 20.3H18.31V15.56H7.21V20.3ZM12.7 11.54L15.28 17.33L14.83 19.04L17.05 23H24.55L12.7 0.499998L0.85 23H8.35L10.63 18.83L10.12 17.33L12.7 11.54Z" fill="#FBFBFB"/>
</svg>
