<svg width="24" height="24" viewBox="0 0 24 24" fill="none" xmlns="http://www.w3.org/2000/svg">
<path d="M18.4299 17.18L15.1199 13.87C15.878 12.7999 16.2074 11.4845 16.0429 10.1834C15.8784 8.88239 15.232 7.69031 14.2314 6.84262C13.2308 5.99492 11.9487 5.55322 10.6383 5.60476C9.32794 5.65629 8.0845 6.19731 7.15357 7.12097C6.22264 8.04463 5.67189 9.28379 5.61008 10.5937C5.54827 11.9037 5.97989 13.1892 6.81971 14.1964C7.65954 15.2036 8.84651 15.8593 10.1462 16.034C11.4459 16.2087 12.7639 15.8897 13.8399 15.14L17.1499 18.45L18.4299 17.18ZM6.9199 10.81C6.91792 10.0343 7.14614 9.27538 7.57567 8.62943C8.0052 7.98347 8.61672 7.47948 9.33283 7.18125C10.0489 6.88302 10.8374 6.80397 11.5985 6.95409C12.3596 7.10421 13.059 7.47676 13.6082 8.02459C14.1574 8.57241 14.5318 9.27086 14.6838 10.0315C14.8359 10.7922 14.7588 11.5809 14.4625 12.2978C14.1661 13.0147 13.6636 13.6275 13.0188 14.0586C12.3739 14.4898 11.6156 14.72 10.8399 14.72C9.80198 14.72 8.80642 14.3084 8.07157 13.5754C7.33671 12.8424 6.92254 11.8479 6.9199 10.81Z" fill="#0C0C0D"/>
</svg>
