<svg width="24" height="24" viewBox="0 0 24 24" fill="none" xmlns="http://www.w3.org/2000/svg">
<path d="M18.0926 5.39078C17.8975 5.39939 17.7158 5.4562 17.5559 5.52086C17.406 5.58114 16.8335 5.8267 15.9316 6.21344C15.029 6.60051 13.8339 7.11363 12.559 7.66188C10.0092 8.75838 7.14253 9.99266 5.67422 10.6244C5.61901 10.6481 5.42636 10.7097 5.22188 10.8693C5.0174 11.0289 4.8 11.3597 4.8 11.7283C4.8 12.0255 4.94164 12.3208 5.11992 12.497C5.29821 12.6733 5.48685 12.7604 5.64844 12.8263C6.23474 13.0656 8.05311 13.8097 8.39649 13.9502C8.51733 14.3203 9.1755 16.3337 9.32813 16.8271C9.42874 17.1527 9.52452 17.3567 9.64922 17.5185C9.71157 17.5994 9.78405 17.6704 9.87188 17.7259C9.90698 17.7482 9.94548 17.7653 9.98438 17.781L9.98672 17.7822C9.99569 17.7858 10.0034 17.7919 10.0125 17.7951C10.0297 17.8011 10.0411 17.8018 10.0641 17.8068C10.1555 17.8363 10.2477 17.8548 10.3301 17.8548C10.6812 17.8548 10.8961 17.6615 10.8961 17.6615L10.909 17.6521L12.7148 16.09L14.9051 18.1619C14.9359 18.2055 15.2235 18.6002 15.8578 18.6002C16.2344 18.6002 16.5332 18.4112 16.725 18.2099C16.9168 18.0087 17.0363 17.7972 17.0871 17.5314V17.5302C17.1346 17.279 19.1531 6.91656 19.1531 6.91656L19.1496 6.93063C19.2087 6.66092 19.2242 6.40974 19.159 6.16188C19.0938 5.91401 18.922 5.67669 18.709 5.54899C18.496 5.42131 18.2876 5.38218 18.0926 5.39078ZM17.9801 6.64469C17.9772 6.6622 17.9822 6.6534 17.9777 6.67399L17.9766 6.68102L17.9754 6.68805C17.9754 6.68805 15.9819 16.918 15.9082 17.3076C15.9136 17.2782 15.8889 17.3367 15.8637 17.372C15.8279 17.3474 15.7547 17.3158 15.7547 17.3158L15.743 17.3029L12.7512 14.4728L10.6359 16.3009L11.2652 13.7814C11.2652 13.7814 15.1989 9.70942 15.4359 9.47242C15.6267 9.28282 15.6668 9.21673 15.6668 9.15133C15.6668 9.06373 15.6211 9.00016 15.5191 9.00016C15.4273 9.00016 15.3039 9.08941 15.2379 9.13141C14.378 9.67954 10.6031 11.8796 8.91094 12.8638C8.64203 12.7538 6.7738 11.989 6.14063 11.7306C6.14542 11.7285 6.14384 11.7293 6.14883 11.7271C7.61752 11.0952 10.483 9.86096 13.0324 8.76461C14.3071 8.21644 15.5032 7.70293 16.4051 7.31617C17.2931 6.93537 17.9101 6.67329 17.9801 6.64469Z" fill="black"/>
</svg>
