<svg width="24" height="24" viewBox="0 0 24 24" fill="none" xmlns="http://www.w3.org/2000/svg">
<path d="M20.1611 16.2007C19.4872 14.988 17.7514 13.5307 17.0347 12.8966C16.8386 12.723 16.8176 12.4226 16.9961 12.2306C18.3637 10.761 19.4576 9.07233 19.8341 8.05196C20.0002 7.60121 19.6564 7.12496 19.1719 7.12496H17.7645C17.3006 7.12496 17.0291 7.29146 16.8997 7.55658C15.7631 9.88571 14.7881 10.8937 14.1056 11.4828C13.7235 11.8128 13.1276 11.5395 13.1276 11.0373C13.1276 10.0698 13.1276 8.81921 13.1276 7.93233C13.1276 7.50221 12.7759 7.15421 12.342 7.15421L9.77099 7.12496C9.44736 7.12496 9.26249 7.49133 9.45674 7.74821L9.88124 8.35758C10.041 8.56871 10.1272 8.82558 10.1272 9.08921L10.125 11.8335C10.125 12.3108 9.54636 12.5441 9.20286 12.2096C8.04074 11.0778 7.03236 8.76671 6.66936 7.66158C6.56436 7.34171 6.26474 7.12571 5.92499 7.12496L4.53861 7.12158C4.01849 7.12158 3.63824 7.61471 3.77961 8.11121C5.04636 12.5576 7.64549 16.7876 12.2775 17.2462C12.7339 17.2912 13.1276 16.9237 13.1276 16.4688V15.0266C13.1276 14.613 13.452 14.2575 13.869 14.247C13.8836 14.2466 13.8982 14.2466 13.9129 14.2466C15.138 14.2466 16.5101 16.0297 16.9901 16.8637C17.1281 17.1037 17.3861 17.25 17.6651 17.25H19.53C20.0741 17.25 20.4232 16.6728 20.1611 16.2007Z" fill="black"/>
</svg>
